<?xml version="1.0" encoding="UTF-8"?>
<svg version="1.1" xmlns="http://www.w3.org/2000/svg" width="1024" height="1024">
<path d="M0 0 C14.43599266 14.38638444 30.20725592 37.79090862 31.12890625 58.9609375 C31.06509766 59.97027344 31.06509766 59.97027344 31 61 C27.2256161 61.88764774 23.79686375 62.09509847 19.92456055 62.02172852 C18.12325935 61.99158409 18.12325935 61.99158409 16.28556824 61.96083069 C14.99894791 61.93379562 13.71232758 61.90676056 12.38671875 61.87890625 C11.04865863 61.85458301 9.7105897 61.83074058 8.37251282 61.80735779 C4.86255799 61.74473594 1.35276067 61.67560821 -2.15704346 61.60510254 C-5.74329498 61.53422038 -9.32965756 61.46952269 -12.91601562 61.40429688 C-19.94413101 61.27556718 -26.97209857 61.13996072 -34 61 C-34.53326904 59.90373291 -35.06653809 58.80746582 -35.6159668 57.67797852 C-36.33093999 56.22398463 -37.04620617 54.77013478 -37.76171875 53.31640625 C-38.11133667 52.59569946 -38.46095459 51.87499268 -38.82116699 51.13244629 C-44.36555402 39.91234938 -52.5382793 32.31812409 -64.27734375 27.71484375 C-70.51881126 25.68290742 -76.48635019 24.60341956 -83 24 C-82.99476318 24.95890137 -82.98952637 25.91780273 -82.98413086 26.90576172 C-82.96605321 30.45783559 -82.95455785 34.00990537 -82.94506836 37.56201172 C-82.94003448 39.10043013 -82.93320692 40.63884375 -82.92456055 42.17724609 C-82.91245361 44.38640526 -82.90676231 46.59550126 -82.90234375 48.8046875 C-82.89718246 49.49432587 -82.89202118 50.18396423 -82.88670349 50.89450073 C-82.88612829 55.77225659 -82.88612829 55.77225659 -84 58 C-82.4221875 58.37125 -82.4221875 58.37125 -80.8125 58.75 C-75.53875621 60.302352 -72.8295913 62.66179945 -69.91015625 67.37109375 C-67.24556844 72.8736266 -67.25376768 78.41761108 -67.125 84.4375 C-67.07859375 85.51837891 -67.0321875 86.59925781 -66.984375 87.71289062 C-66.70151321 96.68287303 -67.02569042 104.86401911 -73 112 C-78.81015363 116.6481229 -84.18838501 118.29211724 -91.5625 117.8125 C-99.02641022 116.90500272 -103.04731293 114.40794043 -107.80078125 108.71875 C-113.74900781 100.19360445 -111.59806133 80.81981133 -110 71 C-107.25312864 63.55366196 -101.89969155 60.44984577 -95 57 C-95 46.11 -95 35.22 -95 24 C-108.3449404 26.05306775 -117.79586675 28.33689912 -128 37 C-128.97195313 37.763125 -129.94390625 38.52625 -130.9453125 39.3125 C-144.61590279 50.74375803 -151.87062298 71.3795295 -153.8190918 88.6003418 C-156.01079775 117.6722417 -153.15461488 146.38984925 -133.6875 169.25 C-123.08894764 180.5467678 -108.83723883 187.58199834 -93.2734375 188.3359375 C-75.17612483 188.66900565 -58.77638962 185.160456 -45.13671875 172.40234375 C-38.95703509 165.45443616 -35.25310644 157.6749505 -32 149 C-10.55 149 10.9 149 33 149 C28.48677546 168.18120428 28.48677546 168.18120428 25.625 174.375 C25.32319824 175.03016602 25.02139648 175.68533203 24.71044922 176.36035156 C23.82803022 178.25131565 22.92031527 180.12724133 22 182 C21.27296875 183.49660156 21.27296875 183.49660156 20.53125 185.0234375 C12.75597747 200.09882701 1.43126693 212.78940577 -12 223 C-12.98871094 223.75410156 -13.97742188 224.50820313 -14.99609375 225.28515625 C-43.46248493 246.00414009 -78.41927062 251.17903097 -112.6953125 245.90625 C-138.30894205 241.68132141 -159.65626154 230.14048374 -178 212 C-178.72445312 211.34773437 -179.44890625 210.69546875 -180.1953125 210.0234375 C-206.95167648 185.43358073 -216.13414549 146.06251046 -217.88623047 111.3203125 C-219.26455886 71.09441965 -208.00219597 32.12938433 -180.51953125 2.16015625 C-157.09796728 -22.59950375 -126.07048658 -33.79855265 -92.4921875 -34.93359375 C-57.23465771 -35.6601589 -25.57630039 -24.82650657 0 0 Z M-93.64453125 73.13671875 C-95.58146133 75.79929987 -95.51676342 77.98703433 -95.6875 81.25 C-95.749375 82.41015625 -95.81125 83.5703125 -95.875 84.765625 C-95.91625 85.83296875 -95.9575 86.9003125 -96 88 C-96.04125 88.73734375 -96.0825 89.4746875 -96.125 90.234375 C-96.25604056 93.93627091 -95.69480574 96.70454439 -94 100 C-92.12061828 102.29827312 -92.12061828 102.29827312 -89.0625 102.3125 C-86.07681706 102.26437364 -86.07681706 102.26437364 -84.33349609 100.80444336 C-82.54533164 98.38475763 -82.6125373 96.8080836 -82.6015625 93.81640625 C-82.59769531 92.80642578 -82.59382812 91.79644531 -82.58984375 90.75585938 C-82.60144531 89.70205078 -82.61304688 88.64824219 -82.625 87.5625 C-82.61339844 86.51255859 -82.60179687 85.46261719 -82.58984375 84.38085938 C-82.59371094 83.36958984 -82.59757813 82.35832031 -82.6015625 81.31640625 C-82.60494629 80.39287354 -82.60833008 79.46934082 -82.61181641 78.51782227 C-83.07233535 75.53082108 -83.89400746 74.1471228 -86 72 C-89.07782192 71.55115097 -91.02910507 71.32890635 -93.64453125 73.13671875 Z " fill="#000000" transform="translate(670,409)"/>
<path d="M0 0 C0.80953125 -0.02900391 1.6190625 -0.05800781 2.453125 -0.08789062 C17.93480175 -0.24414978 32.71665238 7.42182845 46.75 13.1875 C48.85954396 14.04802818 50.96932899 14.90796562 53.0793457 15.76733398 C59.22362545 18.27252758 65.36239546 20.79100556 71.5 23.3125 C73.09746706 23.9680006 74.69495839 24.62344207 76.29248047 25.27880859 C82.42762407 27.79678313 88.55992834 30.32153872 94.68904114 32.85415649 C102.02067757 35.88333884 109.3595177 38.8944801 116.703125 41.89453125 C117.67449905 42.29142654 118.64587311 42.68832184 119.64668274 43.09724426 C123.50112369 44.67187809 127.35565397 46.24628852 131.21102905 47.81863403 C135.60314979 49.60989167 139.99315606 51.40587751 144.37841797 53.21386719 C147.85096051 54.64436824 151.334929 56.0409401 154.82861328 57.41894531 C156.53298177 58.10455881 158.23725013 58.7904213 159.94140625 59.4765625 C160.71620834 59.77460785 161.49101044 60.0726532 162.28929138 60.37973022 C167.54294927 62.52032845 170.79335509 64.98969206 174.5 69.3125 C175.47669162 72.24257485 175.79602886 74.49300494 175.9375 77.5625 C175.99808594 78.47515625 176.05867188 79.3878125 176.12109375 80.328125 C175.1821501 84.83977874 173.01813605 87.3938073 169.5 90.3125 C165.91502748 92.35515736 162.16795647 93.79576666 158.3125 95.25 C157.15322998 95.7047168 155.99395996 96.15943359 154.79956055 96.62792969 C150.71274644 98.22435556 146.60741024 99.76999613 142.5 101.3125 C141.7177002 101.60723206 140.93540039 101.90196411 140.12939453 102.20562744 C129.38275081 106.25376835 118.61679427 110.24885131 107.84362793 114.2257843 C98.9907239 117.49581971 90.152269 120.80380102 81.31729126 124.12191772 C78.83574358 125.05377173 76.35383456 125.98465709 73.87182617 126.9152832 C66.67936546 129.61276512 59.48865811 132.31472846 52.30332947 135.03115845 C49.28739596 136.17106508 46.27061434 137.30871683 43.25375366 138.44616699 C41.17385993 139.23155013 39.09534622 140.02050906 37.0168457 140.80957031 C35.17159302 141.50518066 35.17159302 141.50518066 33.2890625 142.21484375 C32.21350098 142.62210693 31.13793945 143.02937012 30.02978516 143.44897461 C27.5 144.3125 27.5 144.3125 25.5 144.3125 C25.17 144.9725 24.84 145.6325 24.5 146.3125 C21.48451718 147.13025805 18.56923261 147.76096437 15.5 148.3125 C14.42621094 148.51230469 13.35242188 148.71210938 12.24609375 148.91796875 C10.51552734 149.20607422 10.51552734 149.20607422 8.75 149.5 C7.68265625 149.67917969 6.6153125 149.85835937 5.515625 150.04296875 C-5.27837893 151.1065168 -15.03150284 148.6214035 -25.125 145.0625 C-26.41964607 144.6176048 -27.71457644 144.17353619 -29.00976562 143.73022461 C-42.78287901 138.98181501 -56.42203161 133.85245753 -70.05766296 128.72573853 C-76.7954448 126.19495248 -83.55155372 123.71566895 -90.31237793 121.2472229 C-100.30563888 117.59806601 -110.28691508 113.91829327 -120.25 110.1875 C-121.26280029 109.80883789 -122.27560059 109.43017578 -123.3190918 109.04003906 C-124.23988525 108.69424805 -125.16067871 108.34845703 -126.109375 107.9921875 C-126.91342773 107.69038574 -127.71748047 107.38858398 -128.54589844 107.07763672 C-130.5 106.3125 -130.5 106.3125 -132.5 105.3125 C-132.5 108.9425 -132.5 112.5725 -132.5 116.3125 C-130.85 116.9725 -129.2 117.6325 -127.5 118.3125 C-123.81100488 122.61632764 -122.21738784 126.6928658 -122.5 132.3125 C-123.71982509 136.16457925 -124.58122063 138.57237217 -127.75 141.125 C-129.68106894 143.0902011 -129.68106894 143.0902011 -129.55802917 145.18930054 C-128.76566593 152.27186817 -127.40677188 159.19447517 -125.92559242 166.16301346 C-125.47835679 168.27339327 -125.03983556 170.38541644 -124.60380554 172.49813843 C-123.36522185 178.49733302 -122.1200023 184.49501453 -120.84838867 190.48730469 C-120.06707145 194.17219953 -119.30296585 197.8603159 -118.54967308 201.55103683 C-118.26139392 202.94689538 -117.96678957 204.34146427 -117.66552162 205.73457718 C-114.77956187 219.09948524 -114.77956187 219.09948524 -117.5 226.3125 C-118.16 226.3125 -118.82 226.3125 -119.5 226.3125 C-119.5 226.9725 -119.5 227.6325 -119.5 228.3125 C-123.90667023 230.82762389 -127.08764867 231.69581777 -132.1484375 231.7109375 C-134.02789062 231.71673828 -134.02789062 231.71673828 -135.9453125 231.72265625 C-137.89050781 231.70525391 -137.89050781 231.70525391 -139.875 231.6875 C-141.80859375 231.70490234 -141.80859375 231.70490234 -143.78125 231.72265625 C-158.77560197 231.67647241 -158.77560197 231.67647241 -164.4375 226.5625 C-167.39579609 220.297873 -166.25057392 214.44492496 -164.83984375 207.98828125 C-164.65470718 207.09621475 -164.46957062 206.20414825 -164.27882385 205.28504944 C-163.67630954 202.39586989 -163.05723977 199.51052892 -162.4375 196.625 C-162.01987369 194.64098952 -161.60321132 192.65677589 -161.1875 190.67236328 C-160.15999358 185.78086229 -159.11899731 180.89234903 -158.07391357 176.00457764 C-157.38790324 172.78668358 -156.71103895 169.56693132 -156.03627014 166.34666443 C-155.36129149 163.12613921 -154.68100893 159.90675589 -154 156.6875 C-153.75757568 155.54063721 -153.51515137 154.39377441 -153.26538086 153.2121582 C-153.04374268 152.18050537 -152.82210449 151.14885254 -152.59375 150.0859375 C-152.40490234 149.20341309 -152.21605469 148.32088867 -152.02148438 147.41162109 C-151.5 145.3125 -151.5 145.3125 -150.5 143.3125 C-151.0775 143.10625 -151.655 142.9 -152.25 142.6875 C-155.54664144 140.67288579 -156.76778812 138.77692376 -158.5 135.3125 C-159.31202124 130.38353106 -159.16746231 125.90712234 -156.8125 121.4375 C-154.5 118.3125 -154.5 118.3125 -151.90625 116.6328125 C-149.07375711 113.90148007 -148.86320277 112.1387065 -148.70507812 108.2734375 C-148.69927734 107.54382813 -148.69347656 106.81421875 -148.6875 106.0625 C-148.66236328 105.31742187 -148.63722656 104.57234375 -148.61132812 103.8046875 C-148.55266898 101.97452207 -148.5234192 100.14345547 -148.5 98.3125 C-149.716875 98.10625 -150.93375 97.9 -152.1875 97.6875 C-161.03652446 95.72105012 -170.34779045 92.12559337 -175.75 84.5625 C-177.40294857 79.60365428 -177.06532715 74.96509799 -175.125 70.1875 C-170.31177744 61.8653108 -158.99029205 58.63955276 -150.5 55.3125 C-148.0855967 54.34720614 -145.6715506 53.3810185 -143.2578125 52.4140625 C-142.6286795 52.16330963 -141.99954651 51.91255676 -141.35134888 51.65420532 C-134.70407616 49.00405135 -128.08679687 46.28238445 -121.47186279 43.55270386 C-119.35090956 42.67755984 -117.22945445 41.80364172 -115.10791016 40.92993164 C-106.31230252 37.30608414 -97.52403071 33.66474228 -88.73886108 30.01567078 C-80.14363419 26.44553008 -71.54598189 22.88128009 -62.94543457 19.32397461 C-61.33458215 18.65769781 -59.72382136 17.99119944 -58.11315918 17.32446289 C-53.67232607 15.48670079 -49.22901026 13.65520825 -44.78155518 11.83352661 C-43.45680676 11.28999569 -42.13283241 10.74457311 -40.80975342 10.19699097 C-27.3483578 4.62945591 -14.64734454 0.16848939 0 0 Z " fill="#000000" transform="translate(278.5,341.6875)"/>
<path d="M0 0 C12.72750394 -0.02330309 25.45500269 -0.04100582 38.18252373 -0.05181217 C44.09418371 -0.05700204 50.00582896 -0.06402779 55.91748047 -0.07543945 C61.63632474 -0.08640821 67.35515495 -0.09230608 73.07400894 -0.09487724 C75.24176377 -0.09670654 77.40951795 -0.10027786 79.57726669 -0.10573006 C115.47933814 -0.19233108 115.47933814 -0.19233108 127.3125 2.75 C128.05338867 2.9262793 128.79427734 3.10255859 129.55761719 3.28417969 C152.72630901 9.02376482 171.15860501 21.06586704 183.9453125 41.24902344 C197.4944304 63.74306825 199.70355909 91.32581062 194.22265625 116.58203125 C190.77836151 129.7531326 184.9066593 140.76011935 176 151 C175.55527344 151.59941406 175.11054687 152.19882812 174.65234375 152.81640625 C162.84273691 168.38197368 140.83753966 176.6159719 122.26342773 179.57617188 C116.87143515 180.27644113 111.49382776 180.47280868 106.0625 180.625 C105.02416016 180.66367187 103.98582031 180.70234375 102.91601562 180.7421875 C89.27601659 181.18345841 75.65478132 181 62 181 C62 214.33 62 247.66 62 282 C41.54 282 21.08 282 0 282 C-1.19616163 279.60767674 -1.12531988 278.14410983 -1.12584114 275.47309399 C-1.12844889 274.5142616 -1.13105664 273.55542921 -1.13374341 272.5675413 C-1.13151268 271.5067668 -1.12928196 270.4459923 -1.12698364 269.35307312 C-1.12854363 268.2319152 -1.13010362 267.11075728 -1.13171089 265.95562488 C-1.13572123 262.17312158 -1.13253106 258.39065794 -1.12939453 254.6081543 C-1.13019814 251.90664588 -1.13249218 249.20513918 -1.13470459 246.50363159 C-1.1391608 239.91150773 -1.13818635 233.31939523 -1.13529195 226.72727092 C-1.13303676 221.36980841 -1.1327259 216.01234909 -1.13381577 210.65488625 C-1.133969 209.8933765 -1.13412223 209.13186675 -1.13428011 208.34728095 C-1.13459982 206.80041768 -1.13492404 205.2535544 -1.1352527 203.70669112 C-1.1381072 189.18656704 -1.13482123 174.66644927 -1.12945233 160.14632622 C-1.12498701 147.68421757 -1.12575804 135.22211824 -1.13037109 122.76000977 C-1.13572202 108.29772644 -1.13782967 93.83544865 -1.13475883 79.37316447 C-1.13444027 77.83096333 -1.1341259 76.28876219 -1.13381577 74.74656105 C-1.13366149 73.98772426 -1.13350721 73.22888748 -1.13334826 72.44705563 C-1.13248447 67.09683525 -1.1339431 61.74661838 -1.13629532 56.39639854 C-1.13909938 49.87485719 -1.13834233 43.35332788 -1.13301457 36.83178791 C-1.13038535 33.50363024 -1.12989706 30.17550928 -1.13266373 26.84734917 C-1.13538584 23.24083853 -1.13198091 19.6343848 -1.12698364 16.02787781 C-1.12921436 14.97379547 -1.13144509 13.91971314 -1.13374341 12.83368891 C-1.12983178 11.38370547 -1.12983178 11.38370547 -1.12584114 9.90442944 C-1.12567879 9.07202746 -1.12551644 8.23962548 -1.12534916 7.38199919 C-0.99167692 4.84183716 -0.55623831 2.47918554 0 0 Z M62 53 C62.99 53.495 62.99 53.495 64 54 C63.01 54.495 63.01 54.495 62 55 C62 79.42 62 103.84 62 129 C96.17280401 131.34513939 96.17280401 131.34513939 126.27734375 117.890625 C134.6631562 109.09537866 136.42848457 99.4237047 136.265625 87.5078125 C135.52815558 77.76887816 132.52198158 70.13654386 125.625 63.16015625 C115.84279562 55.11021723 104.72995435 52.65070407 92.37109375 52.8046875 C91.49598648 52.8075174 90.62087921 52.81034729 89.71925354 52.81326294 C86.95852245 52.82434606 84.19813095 52.84942743 81.4375 52.875 C79.55143702 52.88504518 77.66536889 52.89416832 75.77929688 52.90234375 C71.18606957 52.92424632 66.59309211 52.95869236 62 53 Z " fill="#000000" transform="translate(734,376)"/>
<path d="M0 0 C1.98 0.495 1.98 0.495 4 1 C4.05084651 8.82874773 4.08579517 16.65745261 4.10986328 24.48632812 C4.11876745 27.14786548 4.13353257 29.80918615 4.15087891 32.47070312 C4.17522721 36.30341302 4.18650621 40.13597668 4.1953125 43.96875 C4.20563507 45.15239136 4.21595764 46.33603271 4.22659302 47.55554199 C4.22801882 58.13196263 2.64212361 66.48776392 -4 75 C-14.80203093 85.68866629 -27.81417811 92.96309978 -41.8215332 98.56567383 C-43.70213664 99.3183581 -45.57491027 100.08838205 -47.44726562 100.86132812 C-54.27975068 103.64278975 -60.88189802 105.86456941 -68 108 C-68 133.74 -68 159.48 -68 186 C-88.46 186 -108.92 186 -130 186 C-131.18574288 182.44277137 -131.11990193 179.62223456 -131.11352539 175.86645508 C-131.11367142 175.14425278 -131.11381744 174.42205048 -131.1139679 173.67796326 C-131.11327145 171.29178866 -131.1054916 168.90569221 -131.09765625 166.51953125 C-131.09579112 164.8647211 -131.09436766 163.20991039 -131.09336853 161.55509949 C-131.08955085 157.20018997 -131.07972695 152.84531382 -131.06866455 148.49041748 C-131.05843433 144.04635062 -131.05386745 139.60227837 -131.04882812 135.15820312 C-131.03810402 126.43878677 -131.02103657 117.71939754 -131 109 C-132.23524414 108.55124512 -133.47048828 108.10249023 -134.74316406 107.64013672 C-192.22143602 86.67261258 -192.22143602 86.67261258 -203 65 C-204.06782486 61.79652541 -204.12058306 59.51812177 -204.11352539 56.15161133 C-204.11344986 54.9505928 -204.11337433 53.74957428 -204.11329651 52.51216125 C-204.10813522 51.21521835 -204.10297394 49.91827545 -204.09765625 48.58203125 C-204.09579077 47.24110466 -204.09436748 45.90017739 -204.09336853 44.55924988 C-204.08955356 41.03290927 -204.07973199 37.50660996 -204.06866455 33.98028564 C-204.0584285 30.38074299 -204.05386621 26.78119365 -204.04882812 23.18164062 C-204.0381088 16.12107687 -204.02104462 9.06054113 -204 2 C-189.61319749 7.50751877 -175.24842646 13.06140186 -160.93893433 18.76675415 C-117.65476351 36.10830897 -117.65476351 36.10830897 -72.3125 28.9375 C-71.60432129 28.68009033 -70.89614258 28.42268066 -70.16650391 28.1574707 C-66.38116987 26.93985462 -66.38116987 26.93985462 -64 24 C-62.39392122 23.78982346 -60.78725073 23.5836353 -59.17861938 23.39398193 C-54.72727595 22.58900016 -50.57909222 20.72512678 -46.38671875 19.0703125 C-45.37712601 18.67931366 -44.36753326 18.28831482 -43.3273468 17.88546753 C-40.11130286 16.63894994 -36.89919261 15.38268195 -33.6875 14.125 C-30.48605727 12.87571539 -27.28379119 11.62866011 -24.07978821 10.38595581 C-22.09135933 9.61429481 -20.10442898 8.83875672 -18.11930847 8.05862427 C-12.15370067 5.73824557 -6.15993949 3.74071059 0 2 C0 1.34 0 0.68 0 0 Z " fill="#000000" transform="translate(384,472)"/>
<path d="M0 0 C1.65 0 3.3 0 5 0 C5 0.33 5 0.66 5 1 C3.35 1 1.7 1 0 1 C0 0.67 0 0.34 0 0 Z " fill="#0F0D0E" transform="translate(800,430)"/>
<path d="M0 0 C4 1 4 1 4 1 Z " fill="#121112" transform="translate(692,471)"/>
<path d="M0 0 C3 1 3 1 3 1 Z " fill="#141312" transform="translate(592,595)"/>
<path d="M0 0 C3 1 3 1 3 1 Z " fill="#151312" transform="translate(637,471)"/>
<path d="M0 0 C2 1 2 1 2 1 Z " fill="#1E1E1F" transform="translate(139,574)"/>
<path d="M0 0 C2 1 2 1 2 1 Z " fill="#222221" transform="translate(120,573)"/>
<path d="" fill="#0F100D" transform="translate(0,0)"/>
<path d="M0 0 C2 1 2 1 2 1 Z " fill="#171615" transform="translate(651,556)"/>
<path d="" fill="#161516" transform="translate(0,0)"/>
<path d="" fill="#151314" transform="translate(0,0)"/>
<path d="M0 0 C2 1 2 1 2 1 Z " fill="#12110F" transform="translate(265,491)"/>
<path d="" fill="#141312" transform="translate(0,0)"/>
<path d="" fill="#100F0F" transform="translate(0,0)"/>
<path d="M0 0 C2 1 2 1 2 1 Z " fill="#121012" transform="translate(361,480)"/>
<path d="M0 0 C2 1 2 1 2 1 Z " fill="#11110F" transform="translate(198,480)"/>
<path d="M0 0 C2 1 2 1 2 1 Z " fill="#131212" transform="translate(684,471)"/>
<path d="M0 0 C2 1 2 1 2 1 Z " fill="#131212" transform="translate(673,471)"/>
<path d="M0 0 C2 1 2 1 2 1 Z " fill="#141414" transform="translate(644,471)"/>
<path d="M0 0 C2 1 2 1 2 1 Z " fill="#121010" transform="translate(819,430)"/>
<path d="M0 0 C2 1 2 1 2 1 Z " fill="#0F0F0F" transform="translate(816,430)"/>
<path d="M0 0 C2 1 2 1 2 1 Z " fill="#110F0F" transform="translate(811,430)"/>
<path d="M0 0 C2 1 2 1 2 1 Z " fill="#0F0E0E" transform="translate(808,430)"/>
<path d="M0 0 C2 1 2 1 2 1 Z " fill="#1C1D1E" transform="translate(111,402)"/>
<path d="M0 0 C2 1 2 1 2 1 Z " fill="#181716" transform="translate(232,352)"/>
<path d="" fill="#2A2A2A" transform="translate(0,0)"/>
<path d="" fill="#22201F" transform="translate(0,0)"/>
<path d="" fill="#212120" transform="translate(0,0)"/>
<path d="" fill="#222020" transform="translate(0,0)"/>
<path d="" fill="#1C1819" transform="translate(0,0)"/>
<path d="" fill="#191819" transform="translate(0,0)"/>
<path d="" fill="#141211" transform="translate(0,0)"/>
<path d="" fill="#141313" transform="translate(0,0)"/>
<path d="" fill="#151210" transform="translate(0,0)"/>
<path d="" fill="#131410" transform="translate(0,0)"/>
<path d="" fill="#130F10" transform="translate(0,0)"/>
<path d="" fill="#171613" transform="translate(0,0)"/>
<path d="" fill="#121212" transform="translate(0,0)"/>
<path d="" fill="#111012" transform="translate(0,0)"/>
<path d="" fill="#141113" transform="translate(0,0)"/>
<path d="" fill="#1F201F" transform="translate(0,0)"/>
<path d="" fill="#171513" transform="translate(0,0)"/>
<path d="" fill="#171615" transform="translate(0,0)"/>
<path d="" fill="#242424" transform="translate(0,0)"/>
<path d="" fill="#131411" transform="translate(0,0)"/>
<path d="" fill="#181616" transform="translate(0,0)"/>
<path d="" fill="#181516" transform="translate(0,0)"/>
<path d="" fill="#181616" transform="translate(0,0)"/>
<path d="" fill="#171617" transform="translate(0,0)"/>
<path d="" fill="#171515" transform="translate(0,0)"/>
<path d="" fill="#181515" transform="translate(0,0)"/>
<path d="" fill="#151615" transform="translate(0,0)"/>
<path d="" fill="#191817" transform="translate(0,0)"/>
<path d="" fill="#1A1818" transform="translate(0,0)"/>
<path d="" fill="#1F1C20" transform="translate(0,0)"/>
<path d="" fill="#1A1715" transform="translate(0,0)"/>
<path d="" fill="#161816" transform="translate(0,0)"/>
<path d="" fill="#12110F" transform="translate(0,0)"/>
<path d="" fill="#131211" transform="translate(0,0)"/>
<path d="" fill="#131211" transform="translate(0,0)"/>
<path d="" fill="#161617" transform="translate(0,0)"/>
<path d="" fill="#131111" transform="translate(0,0)"/>
<path d="" fill="#100F10" transform="translate(0,0)"/>
<path d="" fill="#111111" transform="translate(0,0)"/>
<path d="" fill="#141411" transform="translate(0,0)"/>
<path d="" fill="#121010" transform="translate(0,0)"/>
<path d="" fill="#121210" transform="translate(0,0)"/>
<path d="" fill="#131211" transform="translate(0,0)"/>
<path d="" fill="#161216" transform="translate(0,0)"/>
<path d="" fill="#100E0E" transform="translate(0,0)"/>
<path d="" fill="#181615" transform="translate(0,0)"/>
<path d="" fill="#131212" transform="translate(0,0)"/>
<path d="" fill="#110F0E" transform="translate(0,0)"/>
<path d="" fill="#181614" transform="translate(0,0)"/>
<path d="" fill="#131310" transform="translate(0,0)"/>
<path d="" fill="#141315" transform="translate(0,0)"/>
<path d="" fill="#100F0E" transform="translate(0,0)"/>
<path d="" fill="#12110F" transform="translate(0,0)"/>
<path d="" fill="#151513" transform="translate(0,0)"/>
<path d="" fill="#141212" transform="translate(0,0)"/>
<path d="" fill="#100D0E" transform="translate(0,0)"/>
<path d="" fill="#151514" transform="translate(0,0)"/>
<path d="" fill="#141514" transform="translate(0,0)"/>
<path d="" fill="#151412" transform="translate(0,0)"/>
<path d="" fill="#141112" transform="translate(0,0)"/>
<path d="" fill="#141315" transform="translate(0,0)"/>
<path d="" fill="#141514" transform="translate(0,0)"/>
<path d="" fill="#100D0F" transform="translate(0,0)"/>
<path d="" fill="#141111" transform="translate(0,0)"/>
<path d="" fill="#151416" transform="translate(0,0)"/>
<path d="" fill="#161614" transform="translate(0,0)"/>
<path d="" fill="#0F0E0E" transform="translate(0,0)"/>
<path d="" fill="#111011" transform="translate(0,0)"/>
<path d="" fill="#0F0F0D" transform="translate(0,0)"/>
<path d="" fill="#151312" transform="translate(0,0)"/>
<path d="" fill="#100E0C" transform="translate(0,0)"/>
<path d="" fill="#161918" transform="translate(0,0)"/>
<path d="" fill="#171313" transform="translate(0,0)"/>
<path d="" fill="#121011" transform="translate(0,0)"/>
<path d="" fill="#1E1C1A" transform="translate(0,0)"/>
<path d="" fill="#1F201E" transform="translate(0,0)"/>
<path d="" fill="#131110" transform="translate(0,0)"/>
<path d="" fill="#1A1B19" transform="translate(0,0)"/>
<path d="" fill="#242125" transform="translate(0,0)"/>
<path d="" fill="#171615" transform="translate(0,0)"/>
<path d="" fill="#1C1C1B" transform="translate(0,0)"/>
<path d="" fill="#151816" transform="translate(0,0)"/>
<path d="" fill="#191A17" transform="translate(0,0)"/>
<path d="" fill="#181817" transform="translate(0,0)"/>
<path d="" fill="#191719" transform="translate(0,0)"/>
<path d="" fill="#191618" transform="translate(0,0)"/>
<path d="" fill="#191818" transform="translate(0,0)"/>
<path d="" fill="#171716" transform="translate(0,0)"/>
<path d="" fill="#1B1B1C" transform="translate(0,0)"/>
<path d="" fill="#1A1919" transform="translate(0,0)"/>
<path d="" fill="#393B3A" transform="translate(0,0)"/>
<path d="" fill="#1C1C1A" transform="translate(0,0)"/>
<path d="" fill="#3B3B3C" transform="translate(0,0)"/>
</svg>
