<svg width="1066" height="976" viewBox="0 0 1066 976" fill="none" xmlns="http://www.w3.org/2000/svg">
<rect width="1066" height="976" fill="black"/>
<path d="M296.162 446.072V413.364H450.266V446.072H392.82V601H353.607V446.072H296.162ZM645.534 479.055H605.405C604.672 473.863 603.175 469.251 600.915 465.22C598.655 461.128 595.754 457.646 592.211 454.776C588.669 451.905 584.576 449.706 579.934 448.179C575.353 446.652 570.375 445.888 565 445.888C555.289 445.888 546.829 448.301 539.622 453.126C532.415 457.891 526.826 464.854 522.856 474.016C518.885 483.116 516.9 494.172 516.9 507.182C516.9 520.558 518.885 531.797 522.856 540.898C526.887 549.999 532.506 556.87 539.714 561.512C546.921 566.154 555.258 568.475 564.726 568.475C570.04 568.475 574.956 567.773 579.476 566.368C584.057 564.963 588.119 562.917 591.662 560.229C595.204 557.481 598.136 554.152 600.457 550.243C602.839 546.334 604.488 541.875 605.405 536.866L645.534 537.05C644.496 545.662 641.9 553.969 637.746 561.97C633.654 569.911 628.126 577.026 621.163 583.317C614.261 589.548 606.015 594.495 596.426 598.16C586.898 601.763 576.117 603.565 564.084 603.565C547.349 603.565 532.384 599.778 519.191 592.205C506.059 584.631 495.675 573.667 488.04 559.313C480.466 544.96 476.679 527.582 476.679 507.182C476.679 486.72 480.527 469.312 488.224 454.959C495.92 440.605 506.364 429.672 519.557 422.159C532.75 414.585 547.593 410.798 564.084 410.798C574.956 410.798 585.035 412.325 594.319 415.379C603.664 418.433 611.94 422.892 619.148 428.756C626.355 434.558 632.219 441.674 636.738 450.103C641.319 458.532 644.251 468.183 645.534 479.055ZM686.882 601V413.364H760.91C775.142 413.364 787.266 416.082 797.283 421.518C807.3 426.893 814.935 434.375 820.188 443.964C825.502 453.493 828.159 464.487 828.159 476.947C828.159 489.408 825.471 500.402 820.096 509.93C814.721 519.459 806.934 526.88 796.733 532.194C786.594 537.508 774.317 540.165 759.902 540.165H712.718V508.373H753.489C761.124 508.373 767.415 507.06 772.362 504.433C777.371 501.746 781.097 498.05 783.54 493.347C786.044 488.583 787.296 483.116 787.296 476.947C787.296 470.717 786.044 465.281 783.54 460.639C781.097 455.936 777.371 452.302 772.362 449.737C767.354 447.11 761.002 445.797 753.306 445.797H726.553V601H686.882Z" fill="white"/>
<path d="M354.17 390.883C365.719 386.841 378.298 386.841 389.846 390.883L481.046 422.803C490.682 426.187 490.682 439.819 481.046 443.203L389.846 475.123C378.298 479.165 365.719 479.165 354.17 475.123L288.062 451.963C285.631 453.763 283.805 456.262 282.83 459.127C284.412 460.222 285.706 461.681 286.606 463.381C287.505 465.082 287.982 466.973 287.998 468.896C288.013 470.82 287.566 472.719 286.693 474.433C285.821 476.147 284.55 477.627 282.986 478.747L283.034 478.963L293.534 526.231C293.768 527.283 293.762 528.373 293.518 529.422C293.274 530.472 292.798 531.453 292.124 532.293C291.45 533.134 290.597 533.813 289.626 534.28C288.655 534.747 287.592 534.99 286.514 534.991H265.502C264.424 534.991 263.36 534.75 262.387 534.284C261.415 533.817 260.56 533.139 259.885 532.298C259.21 531.457 258.732 530.475 258.487 529.425C258.243 528.375 258.237 527.284 258.47 526.231L268.97 478.951L269.03 478.747C267.349 477.546 266.006 475.93 265.132 474.058C264.259 472.185 263.883 470.118 264.042 468.058C264.202 465.998 264.89 464.013 266.042 462.297C267.193 460.581 268.768 459.191 270.614 458.263C271.498 454.398 273.187 450.763 275.57 447.595L262.97 443.191C253.322 439.807 253.322 426.175 262.97 422.791L354.17 390.883Z" fill="white"/>
<path d="M304.715 466.957L300.731 498.805C300.047 504.229 302.255 509.845 306.971 513.157C320.855 522.937 343.487 534.997 372.011 534.997C395.726 535.071 418.805 527.337 437.687 512.989C442.067 509.629 443.951 504.265 443.327 499.165L439.295 466.945L389.843 484.249C378.295 488.291 365.716 488.291 354.167 484.249L304.715 466.957Z" fill="white"/>
<path d="M354 475.508H393V483.5H354V475.508Z" fill="black" stroke="black"/>
<path d="M607.919 526.253C607.919 532.151 606.757 537.992 604.5 543.441C602.243 548.891 598.934 553.843 594.763 558.013C590.593 562.184 585.641 565.493 580.191 567.75C574.742 570.007 568.901 571.169 563.003 571.169C557.104 571.169 551.263 570.007 545.814 567.75C540.364 565.493 535.413 562.184 531.242 558.013C527.071 553.843 523.762 548.891 521.505 543.441C519.248 537.992 518.086 532.151 518.086 526.253V487.753C518.086 475.84 522.818 464.415 531.242 455.992C539.665 447.568 551.09 442.836 563.003 442.836C574.915 442.836 586.34 447.568 594.763 455.992C603.187 464.415 607.919 475.84 607.919 487.753V500.586" stroke="white" stroke-width="8" stroke-linecap="round"/>
<path d="M553.375 484.547C553.375 481.994 554.389 479.546 556.194 477.741C557.999 475.936 560.447 474.922 563 474.922C565.553 474.922 568.001 475.936 569.806 477.741C571.611 479.546 572.625 481.994 572.625 484.547V497.38C572.625 499.933 571.611 502.381 569.806 504.186C568.001 505.991 565.553 507.005 563 507.005C560.447 507.005 557.999 505.991 556.194 504.186C554.389 502.381 553.375 499.933 553.375 497.38V484.547Z" stroke="white" stroke-width="8"/>
<path d="M563 442.836V474.919" stroke="white" stroke-width="8" stroke-linecap="round"/>
<rect x="598" y="479" width="33" height="58" fill="black"/>
</svg>
